<svg width="23" height="23" viewBox="0 0 23 23" fill="none" xmlns="http://www.w3.org/2000/svg">
<path id="Vector" d="M10.0395 0.0606689C7.964 0.330305 6.06372 1.12573 4.40154 2.41099C3.87593 2.81994 2.98194 3.70075 2.54618 4.24002C1.30628 5.77695 0.484179 7.5925 0.133773 9.56983C0.00798646 10.2709 -0.0414298 11.9561 0.0394331 12.7246C0.232606 14.5176 0.857047 16.2748 1.8274 17.7668C2.26765 18.4408 2.654 18.9217 3.25598 19.5374C5.13829 21.4698 7.51476 22.6382 10.2192 22.9528C10.8212 23.0247 12.2857 23.0112 12.9371 22.9348C16.2974 22.5168 19.2983 20.6339 21.1716 17.7668C22.115 16.3242 22.717 14.6659 22.9326 12.9358C23.0225 12.2078 23.0225 10.7922 22.9326 10.0597C22.5193 6.72517 20.6415 3.71423 17.8113 1.85375C16.3333 0.883057 14.6891 0.280872 12.9371 0.0606689C12.2542 -0.0202217 10.6864 -0.0202217 10.0395 0.0606689ZM16.9847 7.21501C17.1195 7.28691 17.2228 7.35881 17.2183 7.37679C17.2048 7.42622 11.5399 10.8776 11.504 10.8596C11.3647 10.8012 6.21197 7.15659 6.22544 7.12962C6.23892 7.11165 8.6109 7.09367 11.495 7.09367H16.7376L16.9847 7.21501ZM8.33686 9.92485C11.1895 11.9202 11.3018 11.9921 11.4995 11.9921C11.6882 11.9876 11.9308 11.8483 14.7116 10.154C16.9622 8.78339 17.7304 8.334 17.7574 8.37894C17.7754 8.41489 17.7843 9.87991 17.7754 11.6415C17.7664 14.1896 17.7484 14.8817 17.7035 15.012C17.5912 15.3131 17.3351 15.5962 17.0296 15.7535L16.7466 15.9018H11.504H6.25689L5.98286 15.7625C5.66839 15.6052 5.51565 15.4434 5.34943 15.0929L5.23263 14.8457V11.5202C5.23263 8.86877 5.2461 8.15873 5.29103 8.02392C5.32697 7.93404 5.35841 7.85764 5.3674 7.85764C5.37638 7.85764 6.71062 8.78788 8.33686 9.92485Z" fill="#FF682C"/>
</svg>
