<svg width="23" height="23" viewBox="0 0 23 23" fill="none" xmlns="http://www.w3.org/2000/svg">
<path id="Vector" d="M10.3692 0.00940704C9.77967 0.0814228 9.1811 0.189444 8.65003 0.319969C5.40965 1.13013 2.61031 3.39858 1.14314 6.39618C0.625575 7.45389 0.306037 8.44859 0.0945113 9.65934C0.00900108 10.1499 0 10.3885 0 11.5047C0 12.6209 0.00900108 12.8595 0.0945113 13.3501C0.306037 14.5653 0.630075 15.5645 1.14764 16.6177C2.60581 19.5883 5.35564 21.8343 8.55102 22.6669C9.65815 22.955 10.0812 23 11.4944 23C12.6105 23 12.849 22.991 13.3396 22.9055C15.0183 22.6084 16.5215 22.0233 17.8536 21.1366C20.59 19.3138 22.3632 16.5457 22.9122 13.2375C23.0293 12.5219 23.0293 10.483 22.9122 9.77186C22.5747 7.76896 21.8591 6.07662 20.6845 4.51481C20.2704 3.9657 19.4468 3.10603 18.8753 2.62893C17.6331 1.58472 16.0174 0.752056 14.4377 0.342474C13.4161 0.0769215 12.9345 0.0184097 11.6744 0.00490761C11.0443 -0.00409508 10.4548 0.000406265 10.3692 0.00940704ZM8.71754 6.67524C9.36112 7.31437 9.91018 7.89948 9.94619 7.9805C9.99119 8.08852 9.9957 8.15604 9.95969 8.25055C9.93719 8.31807 9.59515 8.70064 9.2036 9.09672C8.362 9.94739 8.28099 10.0734 8.30799 10.5415C8.3215 10.8296 8.344 10.8926 8.48802 11.1041C9.1676 12.0898 10.4548 13.4086 11.5124 14.2007C12.0839 14.6283 12.219 14.7003 12.5025 14.7318C12.948 14.7769 13.0831 14.6958 13.9517 13.8407C14.7123 13.089 14.7213 13.08 14.9193 13.08H15.1173L16.319 14.2863C17.5071 15.4745 17.5251 15.497 17.5251 15.677C17.5251 15.8436 17.4936 15.8976 17.2686 16.1451C16.364 17.1218 15.5359 17.5269 14.5322 17.4774C14.0417 17.4549 13.6141 17.3469 12.822 17.0318C10.2117 15.9966 7.5114 13.4896 6.21524 10.8971C5.68868 9.83937 5.46365 9.14173 5.46365 8.52961C5.46365 7.61593 5.72018 7.02631 6.47177 6.21165C6.97133 5.67604 7.17836 5.51851 7.39438 5.51851C7.5429 5.51851 7.63291 5.59952 8.71754 6.67524Z" fill="#FF682C"/>
</svg>
