<svg width="137" height="25" viewBox="0 0 137 25" fill="none" xmlns="http://www.w3.org/2000/svg">
<g id="Group 33">
<path id="Star 1" d="M12.5 0L16.0414 7.62567L24.3882 8.63729L18.2301 14.3618L19.8473 22.6127L12.5 18.525L5.15268 22.6127L6.76988 14.3618L0.611794 8.63729L8.95859 7.62567L12.5 0Z" fill="#E4B248"/>
<path id="Star 2" d="M40.5 0L44.0414 7.62567L52.3882 8.63729L46.2301 14.3618L47.8473 22.6127L40.5 18.525L33.1527 22.6127L34.7699 14.3618L28.6118 8.63729L36.9586 7.62567L40.5 0Z" fill="#E4B248"/>
<path id="Star 3" d="M68.5 0L72.0414 7.62567L80.3882 8.63729L74.2301 14.3618L75.8473 22.6127L68.5 18.525L61.1527 22.6127L62.7699 14.3618L56.6118 8.63729L64.9586 7.62567L68.5 0Z" fill="#E4B248"/>
<path id="Star 4" d="M96.5 0L100.041 7.62567L108.388 8.63729L102.23 14.3618L103.847 22.6127L96.5 18.525L89.1527 22.6127L90.7699 14.3618L84.6118 8.63729L92.9586 7.62567L96.5 0Z" fill="#E4B248"/>
<path id="Star 5" d="M124.5 0L128.041 7.62567L136.388 8.63729L130.23 14.3618L131.847 22.6127L124.5 18.525L117.153 22.6127L118.77 14.3618L112.612 8.63729L120.959 7.62567L124.5 0Z" fill="#E4B248"/>
</g>
</svg>
