<svg version="1.0" xmlns="http://www.w3.org/2000/svg"
 width="120.000000pt" height="120.000000pt" viewBox="0 0 120.000000 120.000000"
 preserveAspectRatio="xMidYMid meet">
<g transform="translate(0.000000,120.000000) scale(0.100000,-0.100000)"
fill="#000000" stroke="none">
<path d="M535 1106 c-172 -28 -252 -63 -324 -141 -53 -58 -79 -115 -97 -214
-38 -215 10 -436 119 -545 112 -112 280 -149 503 -111 172 30 242 67 294 157
48 85 65 179 64 358 -1 276 -61 419 -203 483 -58 26 -237 33 -356 13z m341
-111 c99 -62 141 -202 131 -440 -11 -265 -66 -335 -291 -372 -181 -30 -317 -4
-409 76 -44 39 -93 135 -107 210 -22 117 -5 304 34 380 41 78 126 131 249 156
110 22 124 23 238 21 99 -1 109 -3 155 -31z"/>
<path d="M484 830 c-84 -9 -133 -37 -164 -91 -22 -38 -25 -56 -25 -139 0 -111
19 -161 74 -197 54 -36 107 -47 236 -47 227 -1 305 59 305 232 l0 49 -61 7
c-34 3 -113 6 -175 6 l-114 0 0 -50 0 -50 105 0 105 0 0 -35 0 -35 -160 0
-160 0 0 123 0 122 78 -3 c42 -1 130 -7 194 -12 174 -15 158 -20 158 50 0 59
0 59 -32 64 -57 9 -301 13 -364 6z"/>
</g>
</svg>
