<svg width="177" height="17" viewBox="0 0 177 17" fill="none" xmlns="http://www.w3.org/2000/svg">
<path d="M27.5553 16.1036V11.0257L20.365 1.06766V0.956451H25.6473L29.8127 7.01533H29.9199L34.0617 0.956451H39.1274V1.06766L31.9565 11.0679V16.1036H27.5553Z" fill="white"/>
<path d="M40.8125 16.1036V0.956451H47.8548L51.6343 12.4937H51.7415L55.6475 0.956451H62.5183V16.1036H58.1171V4.05262H58.01L53.866 16.1036H49.3362L45.3423 4.05262H45.2137V16.1036H40.8125Z" fill="white"/>
<path d="M65.3953 16.1036V0.956451H72.6735L79.3492 13.0075H79.4564V0.956451H83.6861V16.1036H76.4079L69.7322 4.05262H69.625V16.1036H65.3953Z" fill="white"/>
<path d="M99.115 0.956451L106.136 15.9924V16.1036H101.349L100.017 13.1187H91.7725L90.4412 16.1036H85.7613V15.9924L92.7393 0.956451H99.115ZM93.2967 9.75561H98.5126L95.9572 4.05262H95.85L93.2967 9.75561Z" fill="white"/>
<path d="M107.825 15.9479L107.675 11.8931C110.402 12.2712 112.441 12.5159 114.417 12.6494C116.478 12.7828 118.152 12.8495 120.343 12.9163V10.4674L112.55 9.84457C109.051 9.55542 107.441 8.10742 107.441 5.30041C107.441 2.04855 109.63 0.600555 114.484 0.600555C117.104 0.600555 119.657 0.711768 123.951 1.06765L124.079 5.12247C121.717 4.78883 119.357 4.49968 116.544 4.31951C115.17 4.23054 113.688 4.16382 112.057 4.14157V6.52598L119.442 7.12653C123.2 7.43792 124.961 8.7747 124.961 11.7597C124.961 14.8336 123.05 16.4595 117.661 16.4595C113.815 16.4595 110.381 16.2593 107.825 15.9479Z" fill="white"/>
<path d="M127.072 16.1036V0.956451H131.473V16.1036H127.072Z" fill="white"/>
<path d="M134.415 8.84144V0.956451H138.816V12.3157C140.426 12.3825 141.993 12.4492 143.56 12.4492C145.084 12.4492 146.673 12.3825 148.283 12.3157V0.956451H152.684V8.84144C152.684 14.5889 150.364 16.4595 143.56 16.4595C136.732 16.4595 134.415 14.5889 134.415 8.84144Z" fill="white"/>
<path d="M155.338 16.1036V0.956451H162.38L166.16 12.4937H166.267L170.173 0.956451H177.044V16.1036H172.643V4.05262H172.535L168.392 16.1036H163.862L159.868 4.05262H159.739V16.1036H155.338Z" fill="white"/>
<path d="M8.55701 6.88186H19.5911V9.71111C19.5932 14.5222 16.9307 16.4595 9.82399 16.4595C2.5887 16.4595 0.0568848 14.3665 0.0568848 8.53003C0.0568848 2.60461 2.1385 0.600555 8.70922 0.600555C12.4437 0.600555 15.7516 0.711768 18.65 0.956437L18.7786 5.01126C15.8373 4.7221 12.9604 4.45519 9.9762 4.2995C8.36621 4.21053 6.69191 4.1438 4.88899 4.07707V12.3179C6.43466 12.4069 8.1304 12.4514 10.0191 12.4514C11.8649 12.4514 13.7107 12.4069 15.3014 12.3179V10.0003H8.55915L8.55701 6.88186Z" fill="white"/>
</svg>
